<svg id="AppleLogo" enable-background="new 0 0 2500 741" viewBox="0 0 2500 741" xmlns="http://www.w3.org/2000/svg"><g><path fill="white" d="m2413 0h-2325.4c-48.3.1-87.5 39.2-87.6 87.6v565.9c.1 48.3 39.3 87.5 87.6 87.5h2325.4c48.3 0 87.7-39.2 87.6-87.5v-565.9c0-48.3-39.2-87.5-87.6-87.6zm71.1 653.5c0 39.2-31.8 71-71 71 0 0 0 0-.1 0h-2325.4c-39.2 0-71.1-31.7-71.1-71v-565.9c.1-39.3 31.9-71 71.1-71.1h2325.4c39.2 0 71.1 31.8 71.1 71z"/><path fill="white" d="m558.4 366.6c-.5-59.7 48.9-88.8 51.2-90.1-28-40.8-71.4-46.4-86.7-46.8-36.5-3.8-71.8 21.8-90.4 21.8-18.9 0-47.5-21.4-78.4-20.8-39.7.6-76.8 23.6-97.1 59.2-42 72.7-10.7 179.5 29.6 238.3 20.1 28.8 43.6 60.9 74.4 59.8 30.1-1.2 41.4-19.2 77.7-19.2 36 0 46.6 19.2 78 18.5 32.3-.5 52.7-28.9 72.1-57.9 23.3-33 32.6-65.5 33-67.1-.8-.5-62.8-24.1-63.4-95.7zm-59.3-175.6c16.2-20.3 27.3-47.8 24.2-75.8-23.4 1-52.8 16.2-69.6 36-14.9 17.5-28.3 46.1-24.8 73 26.2 2 53.3-13.3 70.2-33.2z"/><path fill="white" d="m994.6 583.8h-42.1l-23.1-72.4h-80.1l-22 72.4h-41l79.4-246.6h49zm-72.1-102.9-20.9-64.4c-2.2-6.6-6.4-22.1-12.4-46.5h-.7c-2.4 10.5-6.4 26-11.7 46.5l-20.5 64.4zm275.9 11.8c0 30.2-8.2 54.1-24.6 71.7-14.7 15.6-33 23.4-54.8 23.4-23.6 0-40.5-8.4-50.8-25.2v93.3h-39.5v-191.5c0-19-.5-38.5-1.5-58.4h34.8l2.2 28.2h.7c13.2-21.2 33.2-31.9 60-31.9 21 0 38.5 8.3 52.5 24.9s21 38.4 21 65.5zm-40.2 1.4c0-17.3-3.9-31.6-11.7-42.8-8.5-11.7-20-17.5-34.4-17.5-9.7 0-18.6 3.3-26.5 9.7-7.9 6.5-13.1 15-15.5 25.4-1.1 3.9-1.7 8-1.8 12v29.7c0 12.9 4 23.8 11.9 32.8 7.9 8.9 18.2 13.4 30.9 13.4 14.9 0 26.5-5.8 34.8-17.2 8.1-11.6 12.3-26.7 12.3-45.5zm244.8-1.4c0 30.2-8.2 54.1-24.6 71.7-14.7 15.6-33 23.4-54.8 23.4-23.6 0-40.5-8.4-50.8-25.2v93.3h-39.5v-191.5c0-19-.5-38.5-1.5-58.4h34.8l2.2 28.2h.7c13.2-21.2 33.2-31.9 60-31.9 21 0 38.5 8.3 52.5 24.9 13.9 16.6 21 38.4 21 65.5zm-40.3 1.4c0-17.3-3.9-31.6-11.7-42.8-8.5-11.7-20-17.5-34.4-17.5-9.7 0-18.6 3.3-26.6 9.7-7.9 6.5-13.1 15-15.5 25.4-1.2 4.9-1.9 8.9-1.9 12v29.7c0 12.9 4 23.8 11.9 32.8 7.9 8.9 18.2 13.4 31 13.4 14.9 0 26.5-5.8 34.8-17.2 8.3-11.6 12.4-26.7 12.4-45.5zm269 20.5c0 21-7.3 38.1-21.9 51.2-16 14.4-38.5 21.6-67.2 21.6-26.5 0-47.8-5.1-63.9-15.4l9.1-32.9c17.3 10.3 36.4 15.4 57.1 15.4 14.9 0 26.5-3.4 34.8-10.1s12.5-15.7 12.5-26.9c0-10-3.5-18.4-10.3-25.3-6.8-6.8-18.1-13.2-34-19-43.2-16.1-64.8-39.7-64.8-70.6 0-20.2 7.6-36.8 22.9-49.7 15.2-12.9 35.4-19.4 60.6-19.4 22.4 0 41.1 3.9 56 11.7l-9.9 32.2c-14-7.6-29.7-11.3-47.4-11.3-13.9 0-24.9 3.4-32.7 10.2-6.6 6.1-9.9 13.5-9.9 22.3 0 9.7 3.8 17.8 11.4 24.1 6.6 5.8 18.5 12.2 35.8 19 21.2 8.6 36.8 18.5 46.8 30 10 11.6 15 25.9 15 42.9zm131-79h-43.6v86.3c0 22 7.7 32.9 23.1 32.9 7.1 0 12.9-.6 17.6-1.8l1.1 30c-7.8 2.9-18 4.4-30.7 4.4-15.6 0-27.8-4.8-36.6-14.3s-13.2-25.5-13.2-47.9v-89.6h-25.9v-29.6h25.9v-32.6l38.8-11.7v44.3h43.6zm196.1 57.8c0 27.3-7.8 49.8-23.4 67.3-16.3 18.1-38 27.1-65.1 27.1-26.1 0-46.9-8.7-62.4-25.9-15.5-17.3-23.2-39.2-23.2-65.5 0-27.6 8-50.1 24-67.7s37.5-26.3 64.6-26.3c26.1 0 47.1 8.7 62.9 26 15 16.7 22.6 38.4 22.6 65zm-41 .9c0-16.3-3.5-30.3-10.6-41.9-8.3-14.1-20.1-21.2-35.5-21.2-15.8 0-28 7.1-36.2 21.2-7.1 11.7-10.6 25.9-10.6 42.7 0 16.3 3.5 30.3 10.6 42 8.5 14.1 20.5 21.2 35.9 21.2 15.1 0 26.9-7.2 35.5-21.5 7.3-12.1 10.9-26.2 10.9-42.5zm169.5-53.6c-4.1-.7-8.3-1.1-12.5-1.1-13.9 0-24.6 5.2-32.2 15.7-6.6 9.3-9.9 21-9.9 35.1v93.3h-39.5v-121.8c0-18.7-.3-37.3-1.1-56h34.4l1.4 34h1.1c4.2-11.7 10.7-21.1 19.8-28.2 8.2-6.2 18.3-9.5 28.6-9.5 3.7 0 6.9.3 9.9.7zm176.7 45.7c.1 6-.4 12-1.4 17.9h-118.6c.4 17.6 6.2 31 17.2 40.3 10 8.3 22.9 12.4 38.8 12.4 17.6 0 33.6-2.8 48-8.4l6.2 27.4c-16.8 7.3-36.7 11-59.6 11-27.6 0-49.2-8.1-65-24.3-15.7-16.2-23.6-38-23.6-65.3 0-26.8 7.3-49.1 22-66.9 15.3-19 36.1-28.5 62.2-28.5 25.6 0 45 9.5 58.2 28.5 10.3 15.1 15.6 33.8 15.6 55.9zm-37.7-10.2c.3-11.7-2.3-21.8-7.7-30.4-6.8-11-17.4-16.5-31.5-16.5-12.9 0-23.4 5.4-31.5 16.1-6.6 8.5-10.5 18.8-11.7 30.7z"/><path fill="white" d="m837.9 250c-11 0-20.5-.5-28.4-1.4v-119.3c11.1-1.7 22.3-2.6 33.5-2.5 45.3 0 66.2 22.3 66.2 58.6-.1 42-24.7 64.6-71.3 64.6zm6.7-107.9c-6.1 0-11.3.4-15.6 1.3v90.6c2.3.4 6.8.5 13.1.5 29.7 0 46.6-16.9 46.6-48.5-.1-28.2-15.4-43.9-44.1-43.9zm129.6 108.8c-25.5 0-42.1-19.1-42.1-45 0-27 16.9-46.2 43.5-46.2 25.2 0 42.1 18.2 42.1 44.8 0 27.3-17.4 46.4-43.5 46.4zm.7-77c-14 0-23 13.1-23 31.5 0 18 9.2 31.1 22.8 31.1 13.7 0 22.8-14 22.8-31.5.1-17.8-8.9-31.1-22.6-31.1zm188.4-12.4-27.3 87.4h-17.8l-11.3-37.9c-2.8-9.3-5.2-18.7-7-28.2h-.4c-1.4 9.5-4.1 19.1-7 28.2l-12 37.9h-18l-25.7-87.4h20l9.9 41.5c2.3 9.9 4.3 19.2 5.9 28.1h.4c1.4-7.4 3.8-16.5 7.2-27.9l12.4-41.7h15.8l11.9 40.8c2.9 9.9 5.2 19.6 7 28.8h.5c1.3-9 3.2-18.5 5.9-28.8l10.6-40.8zm100.7 87.4h-19.4v-50.2c0-15.5-5.9-23.2-17.6-23.2-11.5 0-19.4 9.9-19.4 21.4v52h-19.4v-62.4c0-7.7-.2-16-.7-25h17.1l.9 13.5h.5c5.2-9.3 15.8-15.3 27.7-15.3 18.3 0 30.4 14 30.4 36.9zm53.5 0h-19.4v-127.5h19.4zm70.9 2c-25.5 0-42.1-19.1-42.1-45 0-27 16.9-46.2 43.5-46.2 25.2 0 42.1 18.2 42.1 44.8 0 27.3-17.5 46.4-43.5 46.4zm.7-77c-14 0-23 13.1-23 31.5 0 18 9.2 31.1 22.8 31.1 13.7 0 22.8-14 22.8-31.5 0-17.8-8.9-31.1-22.6-31.1zm119.4 75-1.4-10.1h-.5c-5.9 8.1-14.6 12-25.6 12-15.7 0-26.8-11-26.8-25.7 0-21.6 18.7-32.7 51.1-32.7v-1.6c0-11.5-6.1-17.3-18.1-17.3-8.6 0-16.2 2.2-22.8 6.5l-3.9-12.8c8.1-5 18.2-7.6 30-7.6 22.8 0 34.4 12 34.4 36.1v32.2c0 8.8.4 15.7 1.3 20.9zm-2.7-43.5c-21.6 0-32.4 5.2-32.4 17.6 0 9.2 5.6 13.7 13.3 13.7 9.9 0 19.1-7.5 19.1-17.8zm113.2 43.5-.9-14h-.5c-5.6 10.6-15 16-28.1 16-21.1 0-36.7-18.5-36.7-44.6 0-27.3 16.2-46.6 38.3-46.6 11.7 0 20 3.9 24.6 11.9h.4v-50.2h19.4v103.9c0 8.4.2 16.4.7 23.5zm-2.8-51.4c0-12.2-8.1-22.7-20.5-22.7-14.4 0-23.2 12.8-23.2 30.7 0 17.6 9.1 29.7 22.8 29.7 12.2 0 20.9-10.6 20.9-23.2zm142.7 53.4c-25.5 0-42.1-19.1-42.1-45 0-27 16.9-46.2 43.5-46.2 25.2 0 42.1 18.2 42.1 44.8 0 27.3-17.4 46.4-43.5 46.4zm.7-77c-14 0-23 13.1-23 31.5 0 18 9.2 31.1 22.8 31.1 13.7 0 22.8-14 22.8-31.5.1-17.8-8.9-31.1-22.6-31.1zm147.3 75h-19.4v-50.2c0-15.5-5.9-23.2-17.6-23.2-11.5 0-19.4 9.9-19.4 21.4v52h-19.4v-62.4c0-7.7-.2-16-.7-25h17.1l.9 13.5h.5c5.2-9.3 15.8-15.3 27.7-15.3 18.3 0 30.4 14 30.4 36.9zm130.6-72.8h-21.4v42.4c0 10.8 3.7 16.2 11.3 16.2 3.4 0 6.3-.4 8.6-.9l.5 14.7c-3.8 1.4-8.8 2.2-15.1 2.2-15.3 0-24.5-8.4-24.5-30.6v-44.1h-12.8v-14.6h12.8v-16l19.1-5.8v21.8h21.4zm102.9 72.8h-19.4v-49.8c0-15.6-5.9-23.5-17.6-23.5-10.1 0-19.4 6.8-19.4 20.7v52.7h-19.4v-127.6h19.4v52.5h.4c6.1-9.5 15-14.2 26.3-14.2 18.5 0 29.8 14.4 29.8 37.2zm105.3-39h-58.3c.4 16.5 11.3 25.9 27.5 25.9 8.6 0 16.6-1.4 23.6-4.1l3 13.5c-8.3 3.6-18 5.4-29.3 5.4-27.3 0-43.5-17.3-43.5-44 0-26.8 16.6-46.9 41.3-46.9 22.3 0 36.3 16.5 36.3 41.5.2 2.9 0 5.8-.6 8.7zm-17.8-13.8c0-13.5-6.8-23-19.2-23-11.2 0-20 9.7-21.2 23z"/></g></svg>