<svg id="BlogIcon" width="17px" height="23px" viewBox="0 0 17 23" version="1.1" xmlns="http://www.w3.org/2000/svg" xmlns:xlink="http://www.w3.org/1999/xlink">
        <g id="Page-1" stroke="none" stroke-width="1" fill="none" fill-rule="evenodd">
            <g id="Main---Utility-Nav-Open---600" transform="translate(-292.000000, -167.000000)" fill="#FFFFFF">
                <g id="hamburger-menu-open-copy" transform="translate(0.000000, 42.000000)">
                    <g id="Group-7" transform="translate(253.000000, 125.000000)">
                        <path d="M43.5046036,15.9366897 C43.1645272,15.9366897 42.8904346,16.2331821 42.8904346,16.6010508 C42.8904346,16.9689195 43.1645272,17.2654119 43.5046036,17.2654119 L51.4907033,17.2654119 C51.8307798,17.2654119 52.1048723,16.9689195 52.1048723,16.6010508 C52.1048723,16.2331821 51.8307798,15.9366897 51.4907033,15.9366897 L43.5046036,15.9366897 Z M43.5046036,10.8428259 C43.1645272,10.8428259 42.8904346,11.1393182 42.8904346,11.5071869 C42.8904346,11.8750557 43.1645272,12.171548 43.5046036,12.171548 L51.4907033,12.171548 C51.8307798,12.171548 52.1048723,11.8750557 52.1048723,11.5071869 C52.1048723,11.1393182 51.8307798,10.8428259 51.4907033,10.8428259 L43.5046036,10.8428259 Z M43.5046036,5.74793276 C43.1645272,5.74793276 42.8904346,6.04442513 42.8904346,6.41229385 C42.8904346,6.78016258 43.1645272,7.07665494 43.5046036,7.07665494 L47.6004114,7.07665494 C47.9404878,7.07665494 48.2145804,6.78016258 48.2145804,6.41229385 C48.2145804,6.04442513 47.9404878,5.74793276 47.6004114,5.74793276 L43.5046036,5.74793276 Z M50.1843454,1.34673352 L50.1843454,4.2234016 C50.1843454,5.16719575 51.4665837,6.32707449 52.2851744,6.38535404 C52.3873829,6.38535404 52.5388343,6.43862386 52.6410451,6.49591535 L54.7660413,6.49591535 L54.7660413,20.2295611 C54.8171443,20.6175253 54.100755,21.6698763 53.5376795,21.6698763 L41.4055824,21.6688703 C40.9456455,21.6688703 40.228338,20.7823779 40.228338,20.2838498 L40.228338,2.73077109 C40.1772349,2.17697389 40.9967628,1.23619021 41.5077932,1.3467541 L50.1843454,1.34673352 Z M54.7670641,5.16719575 L52.7972515,5.16719575 C52.2611262,5.2114213 51.4258136,4.50684861 51.4128023,3.94901172 L51.4128023,1.58201306 L54.767183,5.00236627 L54.7662554,5.16720089 L54.7670641,5.16719575 Z M51.6914619,0 L41.3033953,0.0170850412 C40.280383,0.0170850412 39.0510935,1.51266941 39,2.56399124 L39,20.4507943 C39,21.3925815 40.4336873,23.0529187 41.2523018,22.9987045 L53.6919591,22.9987045 C54.7158992,22.9987045 55.9962822,21.3925558 55.9962822,20.395551 L56,4.68889178 L51.6914619,0 Z" id="Fill-1"></path>
                    </g>
                </g>
            </g>
        </g>
    </svg>

