<svg width="92px" height="92px" viewBox="0 0 92 92" version="1.1" xmlns="http://www.w3.org/2000/svg" xmlns:xlink="http://www.w3.org/1999/xlink">
    <g id="Page-1" stroke="none" stroke-width="1" fill="none" fill-rule="evenodd">
        <g id="Events---Desktop" transform="translate(-410.000000, -1077.000000)">
            <g id="Group-5" transform="translate(410.000000, 1077.000000)">
                <path d="M92,0.0847404171 L0.0847404171,92 L0,92 L0,-2.84217094e-14 L92,-2.84217094e-14 L92,0.0847404171 Z" id="Combined-Shape" fill="#466E88"></path>
                <g id="np_star_2047082_000000" transform="translate(19.000000, 18.000000)" fill="#FFFFFF" fill-rule="nonzero">
                    <path d="M20.9475,7.62891892 C20.9306731,7.57824324 20.8865031,7.54129189 20.8349696,7.53284595 L13.7824696,6.50349459 L10.6262773,0.0878189189 C10.5789519,-0.00825405405 10.4222515,-0.00825405405 10.3749262,0.0878189189 L7.21981077,6.50457568 L0.166233846,7.53287297 C0.113650385,7.54026324 0.0694776923,7.57721351 0.0526507692,7.62894595 C0.0358238462,7.67962162 0.0494959231,7.73557568 0.0884073077,7.77358378 L5.192215,12.7681784 L3.98697654,19.8195297 C3.97751146,19.8723162 3.99959673,19.9261595 4.04271538,19.9567757 C4.06690415,19.9747232 4.09635154,19.9842243 4.12474731,19.9842243 C4.14683285,19.9842243 4.16997,19.9789457 4.18995231,19.9683881 L10.5001831,16.6386584 L16.8093369,19.9683881 C16.8293187,19.9789457 16.8524569,19.9842243 16.8745419,19.9842243 L16.8798003,19.9842243 C16.9565741,19.9842243 17.0196737,19.9208784 17.0196737,19.8438108 C17.0196737,19.8216403 17.0144151,19.8005243 17.0060017,19.7825784 L15.8091901,12.7682541 L20.9119209,7.77365946 C20.9508328,7.73565405 20.9645043,7.6796973 20.9476774,7.62902162 L20.9475,7.62891892 Z" id="Path"></path>
                </g>
            </g>
        </g>
    </g>
</svg>