<svg width="14px" height="21px" viewBox="0 0 14 21" version="1.1" xmlns="http://www.w3.org/2000/svg" xmlns:xlink="http://www.w3.org/1999/xlink">
    <g id="Page-1" stroke="none" stroke-width="1" fill="none" fill-rule="evenodd">
        <g id="Biltmore---Cards" transform="translate(-2002.000000, -686.000000)" stroke="#946D0F" stroke-width="1.5">
            <g id="location-pin" transform="translate(2003.000000, 687.000000)">
                <path d="M0,6.02423009 L0,6.34147528 L0.0239613639,6.82936077 C0.121513338,7.34123775 0.34057646,8.21924285 0.827492931,9.46337608 C1.55741855,11.2682692 3.04202418,14.170581 6.03620887,18 C7.44815053,16.0485022 11.5616933,10.1469031 11.9270942,7.04886205 L11.9270942,7.024853 C11.9758713,6.7076078 11.9998304,6.36634917 11.9998304,6.02509053 C12.0246462,2.70688974 9.32219513,0 6.01233732,0 C2.7023897,0 0,2.7069073 0,6.02423009 Z" id="Path"></path>
                <path d="M5.98743179,7.95631618 C7.03381792,7.95631618 7.89070788,7.09793183 7.89009412,6.04837523 C7.89009412,4.99919819 7.03324558,4.14043427 5.98743179,4.14043427 C4.9418278,4.14043427 4.08476992,4.99898744 4.08476992,6.04837523 C4.08476992,7.0975524 4.94161812,7.95631618 5.98743179,7.95631618 Z" id="Path"></path>
            </g>
        </g>
    </g>
</svg>