<?xml version="1.0" encoding="UTF-8"?>
<svg width="77px" height="77px" viewBox="0 0 77 77" version="1.1" xmlns="http://www.w3.org/2000/svg" xmlns:xlink="http://www.w3.org/1999/xlink">
    <!-- Generator: Sketch 54.1 (76490) - https://sketchapp.com -->
    <title>Group 8</title>
    <desc>Created with Sketch.</desc>
    <defs>
        <polygon id="path-1" points="0.000114925373 0.138794118 76.8737011 0.138794118 76.8737011 76.8529412 0.000114925373 76.8529412"></polygon>
    </defs>
    <g id="Symbols" stroke="none" stroke-width="1" fill="none" fill-rule="evenodd">
        <g id="CTA/4-Icons/Desktop" transform="translate(-502.000000, -43.000000)">
            <g id="Group-2" transform="translate(406.000000, 42.000000)">
                <g id="Group-8" transform="translate(96.000000, 0.000000)">
                    <g id="Group-3" transform="translate(0.000000, 1.008724)">
                        <mask id="mask-2" fill="white">
                            <use xlink:href="#path-1"></use>
                        </mask>
                        <g id="Clip-2"></g>
                        <path d="M38.4449507,2.32635 L13.9198761,2.32635 C11.4466821,2.32635 8.97118955,2.32176176 6.49684627,2.32635 C4.12248806,2.33093824 2.17795075,4.28667353 2.17795075,6.65649706 C2.17795075,28.0778206 2.17795075,48.0458206 2.1791,69.4671441 C2.1791,74.2194088 5.63260746,74.6942912 6.49684627,74.6942912 C28.3843836,74.6931441 48.5733239,74.6931441 70.4620104,74.6931441 C72.2491,74.6931441 74.6843687,72.6869382 74.6843687,69.4671441 C74.6843687,47.6649971 74.6809209,28.4586441 74.6797716,6.65649706 C74.6797716,4.17885 73.2489507,2.32520294 70.4620104,2.32520294 C59.5693836,2.32520294 49.3387269,2.32635 38.4449507,2.32635 M0.000114925373,6.50279118 C0.000114925373,3.48487941 2.20323433,0.817967647 5.16601045,0.274261765 C5.66708507,0.182497059 63.5561448,0.14235 70.3275478,0.137761765 C71.6009209,0.137761765 72.7903985,0.433702941 73.856906,1.12652647 C75.7290403,2.34011471 76.719697,4.07790882 76.8633537,6.29861471 C76.873697,6.45461471 76.8713985,49.10685 76.873697,70.2758206 C76.8748463,71.4848206 76.6346522,72.6295853 76.0037119,73.6642324 C74.8188313,75.6084971 73.091503,76.6947618 70.8021896,76.8519088 C70.5792343,76.8668206 4.70286119,76.7567029 3.76966716,76.3001735 C1.51138358,75.1932618 0.236861194,73.3969676 0.0196522388,70.8803206 C-0.00333283582,70.6027324 0.0012641791,70.32285 0.0012641791,70.0452618 C0.000114925373,59.5267324 0.000114925373,17.1647029 0.000114925373,6.50279118" id="Fill-1" fill="#FFFFFF" mask="url(#mask-2)"></path>
                    </g>
                    <path d="M8.61595522,9.74644412 L8.61595522,38.4263559 L11.8683433,38.4263559 C11.939597,38.8599441 11.9235075,40.3109735 11.848806,40.5805324 L10.784597,40.5805324 C10.4133881,40.5805324 10.0433284,40.5782382 9.67326866,40.5816794 C9.31929851,40.5839735 8.96532836,40.5679147 8.61825373,40.5920029 L8.61825373,69.2787971 C8.70674627,69.2845324 8.77455224,69.2937088 8.84120896,69.2937088 C18.1306269,69.2879735 28.0165075,69.2822382 37.3047761,69.2765029 C37.3139701,69.2765029 37.3231642,69.2661794 37.331209,69.25815 C37.340403,69.2501206 37.3472985,69.2409441 37.3863731,69.1985029 L37.3863731,66.0119735 L39.5343284,66.0119735 C39.5630597,67.1142971 39.5239851,68.1913853 39.5561642,69.2742088 L68.2426866,69.2742088 C68.3185373,68.8452088 68.299,40.9028559 68.2185522,40.6401794 L67.1520448,40.6401794 C66.7808358,40.6401794 66.4119254,40.6436206 66.0418657,40.6401794 C65.6878955,40.6367382 65.3339254,40.6550912 64.983403,40.6275618 L64.983403,38.4768265 L68.2208507,38.4768265 C68.2553284,38.4148853 68.2737164,38.3953853 68.2737164,38.3747382 C68.2783134,29.1374735 68.2817612,19.2785029 68.2840597,10.0412382 C68.2840597,9.96094412 68.2725672,9.88065 68.2656716,9.80035588 C68.2645224,9.79117941 68.2541791,9.78200294 68.2472836,9.77282647 C68.2392388,9.76479706 68.2300448,9.75791471 68.1932687,9.72350294 L39.5205373,9.72350294 L39.5205373,10.8453265 C39.5205373,11.2146794 39.5228358,11.5840324 39.5193881,11.9533853 C39.5159403,12.3066794 39.5343284,12.6611206 39.5044478,13.0350618 C38.3816269,13.0281794 38.4505821,13.0442382 37.3415522,13.0235912 L37.3415522,9.74644412 L8.61595522,9.74644412 Z M70.4618955,39.5240912 C70.4618955,49.0148559 70.4630448,58.5056206 70.4572985,67.9963853 C70.4572985,68.3829441 70.4320149,68.7832676 70.3308806,69.1537676 C69.9677164,70.4889441 68.7759403,71.4111794 67.3807463,71.48115 C67.2577761,71.4868853 67.134806,71.4857382 67.0118358,71.4857382 C47.9595075,71.4857382 28.9083284,71.4845912 9.85714925,71.4891794 C9.04922388,71.4891794 8.30335821,71.3217088 7.65977612,70.8170029 C6.85644776,70.1872676 6.44156716,69.35565 6.40479104,68.3359147 C6.40134328,68.22465 6.40364179,68.1133853 6.40364179,68.0021206 C6.40364179,48.9093265 6.40364179,29.8153853 6.40249254,10.7225912 C6.40249254,8.99856176 7.79308955,7.59341471 9.54914925,7.54179706 C9.63764179,7.53835588 9.72728358,7.54065 9.81692537,7.54065 C28.9014328,7.54065 47.9870896,7.54065 67.071597,7.53835588 C67.7347164,7.53835588 68.3610597,7.65306176 68.9253433,8.01323824 C69.8401493,8.59938529 70.3584627,9.42985588 70.4435075,10.5172676 C70.4607463,10.7271794 70.4607463,10.9405324 70.4607463,11.1527382 C70.4618955,20.6090912 70.4618955,30.0665912 70.4618955,39.5240912 L70.4618955,39.5240912 Z" id="Fill-4" fill="#FFFFFF"></path>
                    <path d="M38.4224254,43.1421441 C37.474291,43.1421441 36.5365,42.7429676 35.8515448,42.04785 C35.1562463,41.3424088 34.7815896,40.4155853 34.7976791,39.4394382 C34.8126194,38.4885265 35.2297985,37.5582618 35.9377388,36.8860853 C36.6330373,36.2288206 37.5846194,35.8652029 38.4637985,35.8996147 C39.4372164,35.9030559 40.3439776,36.2838794 41.0197388,36.9709676 C41.6966493,37.6592029 42.0678582,38.5802912 42.0644104,39.5656147 C42.0575149,41.5041441 40.3899478,43.1421441 38.4224254,43.1421441 M59.9065746,59.3145265 L43.4170821,42.8439088 L43.5710821,42.5651735 C44.5640373,40.7734676 44.6835597,39.0310853 43.9388433,37.2393794 C43.2102164,35.4866735 41.8575448,34.3052029 39.9187537,33.7282324 L39.6107537,33.6364676 L39.6084552,20.5932618 C39.6084552,20.4108794 39.6050075,20.2009676 39.5659328,20.0185853 C39.476291,19.5930265 39.2441418,19.3406735 38.837306,19.2236735 C38.5626343,19.1456735 38.2960075,19.1468206 38.0178881,19.2271147 C37.6593209,19.3314971 37.4363657,19.5517324 37.3363806,19.8992912 C37.2800672,20.1000265 37.2720224,20.3305853 37.2708731,20.5106735 C37.2674254,23.9472618 37.2674254,27.3861441 37.2674254,30.8250265 L37.2674254,33.6353206 L36.9605746,33.7270853 C34.9413358,34.3292912 33.6047537,35.5164971 32.8726791,37.3552324 C32.156694,39.1561147 32.3359776,40.9340559 33.4220224,42.7899971 L33.6162463,43.1214971 L33.307097,43.3520559 C33.1795299,43.4426735 33.1370075,43.4702029 33.1025299,43.5034676 L18.5932015,57.6925853 C18.4828731,57.7981147 18.3863358,57.8898794 18.3035896,57.9931147 C17.9220373,58.4657029 17.970306,59.0977324 18.4219627,59.5301735 C18.8747687,59.9649088 19.4919179,59.9867029 19.9585149,59.5772029 C20.0458582,59.5014971 20.126306,59.4212029 20.2067537,59.3420559 L35.2884104,44.5989088 L35.5642313,44.7457324 C36.4962761,45.24585 37.4926791,45.5199971 38.5224104,45.4741147 C39.5613358,45.4580559 40.5565896,45.1770265 41.4794403,44.64135 L41.763306,44.4761735 L42.297709,44.9969382 L58.1585597,60.8286441 C58.3160075,60.9869382 58.4045,61.0775559 58.4987388,61.1601441 C58.9653358,61.5776735 59.5951269,61.5662029 60.0341418,61.1417912 C60.5041866,60.68985 60.5478582,60.0383206 60.1398731,59.5599971 C60.0674701,59.4739676 59.9870224,59.3936735 59.9065746,59.3145265" id="Fill-6" fill="#FFFFFF"></path>
                </g>
            </g>
        </g>
    </g>
</svg>