<?xml version="1.0" encoding="UTF-8"?>
<svg width="77px" height="77px" viewBox="0 0 77 77" version="1.1" xmlns="http://www.w3.org/2000/svg" xmlns:xlink="http://www.w3.org/1999/xlink">
    <!-- Generator: Sketch 54.1 (76490) - https://sketchapp.com -->
    <title>Group 8</title>
    <desc>Created with Sketch.</desc>
    <defs>
        <polygon id="path-1" points="0.000459701493 0.0252352941 76.9751948 0.0252352941 76.9751948 76.8523734 0.000459701493 76.8523734"></polygon>
    </defs>
    <g id="Symbols" stroke="none" stroke-width="1" fill="none" fill-rule="evenodd">
        <g id="CTA/4-Icons/Desktop" transform="translate(-1215.000000, -43.000000)">
            <g id="Group-5" transform="translate(1139.000000, 43.000000)">
                <g id="Group-8" transform="translate(76.000000, 0.000000)">
                    <g id="Group-3" transform="translate(0.000000, 0.122168)">
                        <mask id="mask-2" fill="white">
                            <use xlink:href="#path-1"></use>
                        </mask>
                        <g id="Clip-2"></g>
                        <path d="M2.18289254,38.4362206 C2.23920597,58.4443676 18.327609,74.6672206 38.5004597,74.6591912 C58.7778925,74.6511618 74.7835493,58.3021324 74.7881463,38.4545735 C74.791594,18.3844853 58.5503403,2.21898529 38.501609,2.21095588 C18.5724,2.20292647 2.25069851,18.2193088 2.18289254,38.4362206 M0.000459701493,38.4385147 C0.0176985075,17.3509853 17.0128627,0.0303970588 38.4889672,0.0246617647 C59.8133701,0.0200735294 76.9958627,17.1674559 76.9751761,38.4648971 C76.9556388,59.9183382 59.5777731,76.8420441 38.4935642,76.8523676 C17.2427134,76.8638382 0.00390746269,59.6556618 0.000459701493,38.4385147" id="Fill-1" fill="#FFFFFF" mask="url(#mask-2)"></path>
                    </g>
                    <path d="M37.3889015,45.2044471 L36.2281552,45.2044471 C36.2189612,45.1402118 36.2040209,45.0828588 36.2040209,45.0243588 C36.2063194,44.2925353 36.1879313,43.5584176 36.2178119,42.8288882 C36.2902149,41.1002706 36.6798119,39.4404765 37.3934985,37.8655647 C37.8302149,36.8985941 38.3370358,35.9625941 38.7932896,35.0048 C39.483991,33.5514765 40.1264239,32.0763588 40.6320955,30.5496235 C41.1929313,28.8634471 41.3653194,27.1268 41.2239612,25.3603294 C41.1297224,24.1845941 40.8998716,23.0329471 40.4712,21.9294765 C40.018394,20.7640647 39.2920657,19.8074176 38.2267075,19.1295059 C36.9659761,18.3277118 35.624797,18.2072706 34.2181104,18.6638 C33.7618567,18.8117706 33.3389313,19.0228294 32.9447373,19.2912412 C32.2287522,19.7798882 31.9828119,20.3798 32.1977224,21.2148588 C32.2839164,21.5509471 32.4218269,21.8801529 32.5769761,22.1910059 C33.1630955,23.3701824 33.6078567,24.5952412 33.8756328,25.8845353 C34.1824836,27.3562118 33.4262746,28.7923294 32.0552149,29.4128882 C29.7371701,30.4613 26.9973493,29.1915059 26.4204239,26.4523294 C26.2055134,25.4371824 26.3445731,24.4403882 26.6376328,23.4608 C27.467394,20.6860647 29.2096627,18.7119765 31.8690358,17.5477118 C33.1090806,17.0051529 34.4123343,16.7069176 35.7443194,16.5073294 C36.9142597,16.3318294 38.0876478,16.2721824 39.2667821,16.3364176 C41.3021104,16.4488294 43.2891701,16.8032706 45.1406179,17.6991235 C47.3575284,18.7704765 49.0055582,20.4096235 49.9100209,22.7140647 C50.9776776,25.4383294 50.7110507,28.0891824 49.317006,30.6390941 C48.6665284,31.8285941 47.7804537,32.8299765 46.7725582,33.7315647 C45.3474836,35.0070941 43.8419612,36.1793882 42.2307075,37.2128882 C41.091797,37.9424176 40.0643642,38.7946824 39.2392,39.8752118 C38.3048567,41.0991235 37.7451701,42.4801824 37.5164687,43.9954471 C37.459006,44.3911824 37.4314239,44.7915059 37.3889015,45.2044471" id="Fill-4" fill="#FFFFFF"></path>
                    <path d="M38.6650328,51.0405676 C39.7315403,50.9935382 40.6520925,51.3410971 41.4623164,51.9823029 C42.6805254,52.9492735 43.398809,54.20645 43.4551224,55.7687441 C43.5160328,57.4870382 42.8023463,58.8772735 41.4220925,59.8901265 C39.4143463,61.3640971 36.7009582,61.1197735 34.9529433,59.3464206 C33.0118537,57.3769206 33.1589582,54.0493029 35.2632418,52.2553029 C36.2493015,51.4133618 37.3916597,51.0233618 38.6650328,51.0405676" id="Fill-6" fill="#FFFFFF"></path>
                </g>
            </g>
        </g>
    </g>
</svg>