<?xml version="1.0" encoding="UTF-8"?>
<svg width="78px" height="76px" viewBox="0 0 78 76" version="1.1" xmlns="http://www.w3.org/2000/svg" xmlns:xlink="http://www.w3.org/1999/xlink">
    <!-- Generator: Sketch 54.1 (76490) - https://sketchapp.com -->
    <title>Group 8</title>
    <desc>Created with Sketch.</desc>
    <defs>
        <polygon id="path-1" points="0 0.975925111 77.0215588 0.975925111 77.0215588 76.8695652 0 76.8695652"></polygon>
    </defs>
    <g id="Symbols" stroke="none" stroke-width="1" fill="none" fill-rule="evenodd">
        <g id="CTA/4-Icons/Desktop" transform="translate(-861.000000, -44.000000)">
            <g id="Group-4" transform="translate(761.000000, 43.000000)">
                <g id="Group-8" transform="translate(100.000000, 0.000000)">
                    <g id="Group-3" transform="translate(0.000000, 0.154530)">
                        <mask id="mask-2" fill="white">
                            <use xlink:href="#path-1"></use>
                        </mask>
                        <g id="Clip-2"></g>
                        <path d="M38.5271824,3.4234087 C27.1713,3.4234087 15.8154176,3.4234087 4.45953529,3.42453913 C4.18997647,3.42453913 3.91927059,3.42114783 3.6543,3.45845217 C2.98327059,3.55227826 2.55771176,4.01123478 2.50035882,4.6781913 C2.48659412,4.82853913 2.49347647,4.98114783 2.49347647,5.13262609 L2.49347647,72.5088 C2.49347647,72.6975826 2.48544706,72.8886261 2.50838824,73.0762783 C2.58982941,73.7601913 3.0693,74.2123652 3.76212353,74.2700174 C3.91468235,74.2824522 4.06953529,74.2745391 4.22324118,74.2745391 L72.6487412,74.2745391 C72.8208,74.2745391 72.9974471,74.2881043 73.1660647,74.2643652 C73.6753588,74.190887 74.0883,73.9534957 74.2626529,73.4594957 C74.4243882,73.0039304 74.5482706,72.5438435 74.5482706,72.0374087 C74.5379471,50.998887 74.5390941,29.9603652 74.5390941,8.92071304 C74.5390941,7.68966957 74.5402412,6.45975652 74.5379471,5.22871304 C74.5379471,5.03993043 74.5402412,4.84888696 74.5127118,4.66236522 C74.3991529,3.89253913 73.9563882,3.48671304 73.1718,3.43132174 C72.9423882,3.41436522 72.7118294,3.4234087 72.4812706,3.4234087 L38.5271824,3.4234087 Z M38.5168588,76.8666261 C27.2125941,76.8666261 15.9083294,76.8666261 4.60406471,76.8700174 C3.99153529,76.8700174 3.38818235,76.8338435 2.80432941,76.6326261 C1.17206471,76.0662783 0.101858824,74.6351478 0.0078,72.8773217 C-0.00252352941,72.672713 -0.000229411765,72.464713 -0.000229411765,72.2601043 C-0.000229411765,50.0346261 -0.00137647059,27.8091478 0.00550588235,5.5848 C0.00665294118,5.08288696 0.0330352941,4.56627826 0.148888235,4.0801913 C0.568711765,2.32349565 2.14018235,1.07323478 3.97203529,0.987321739 C4.21865294,0.976017391 4.46641765,0.976017391 4.71303529,0.976017391 C27.2080059,0.976017391 49.7029765,0.974886957 72.1979471,0.98053913 C72.6705353,0.98053913 73.1545941,0.994104348 73.6122706,1.09358261 C75.3879176,1.48471304 76.6909765,2.90001739 76.9467706,4.67253913 C76.9949471,5.00601739 77.0190353,5.34514783 77.0190353,5.68088696 C77.0224765,27.8690609 77.0236235,50.0561043 77.0144471,72.2431478 C77.0144471,72.7993217 76.9651235,73.374713 76.8217412,73.9105391 C76.3652118,75.6016696 74.7788294,76.7999304 73.0008882,76.8609739 C72.7152706,76.8711478 72.4296529,76.8666261 72.1440353,76.8666261 L38.5168588,76.8666261 Z" id="Fill-1" fill="#FFFFFF" mask="url(#mask-2)"></path>
                    </g>
                    <path d="M31.56075,60.5677913 L31.56075,59.854487 C31.56075,55.6458783 31.6100735,51.862313 31.6112206,47.6525739 C31.6112206,47.4604 31.59975,47.2659652 31.6226912,47.0760522 C31.6880735,46.5097043 31.9840147,46.1016174 32.5460735,45.9365739 C32.7835147,45.8653565 33.0461912,45.856313 33.29625,45.856313 C35.71425,45.8506609 37.2467206,45.856313 39.6647206,45.8517913 C41.6514265,45.8484 43.5830735,45.5624 45.44475,44.8400522 C50.0983676,43.032487 52.7790441,39.0624 53.7356912,34.2772696 C54.1933676,31.9892696 54.0304853,29.6696174 53.5980441,27.396313 C52.8077206,23.2510087 50.3988971,20.3356174 46.4369559,18.7179652 C44.2277206,17.8170087 41.8877206,17.4948348 39.5156029,17.4846609 C33.6839559,17.4552696 29.8527794,17.4710957 24.0211324,17.4710957 C23.8708676,17.4710957 23.2044265,17.4959652 23.0644853,17.5084 C22.9371618,18.3370087 22.9818971,60.1755304 23.1023382,60.5677913 L31.56075,60.5677913 Z M33.4763382,47.972487 L33.4763382,48.7411826 C33.4763382,52.8288348 33.4774853,56.916487 33.4728971,61.0041391 C33.4728971,61.2641391 33.4591324,61.5320522 33.4006324,61.7830087 C33.2675735,62.3448348 32.8615147,62.6873565 32.2833971,62.7517913 C32.0941324,62.7721391 22.5288088,62.7630957 22.1835441,62.7630957 C21.4023971,62.7235304 20.9194853,62.2532696 20.8724559,61.4857043 C20.8621324,61.3161391 20.8667206,61.1477043 20.8667206,60.9781391 L20.8667206,17.1602261 C20.8667206,15.8048348 21.2911324,15.3899652 22.6790735,15.3899652 C28.5956029,15.3899652 32.5116618,15.3865739 38.4293382,15.3910957 C40.8152206,15.3933565 43.1816029,15.5776174 45.4768676,16.2728348 C48.3215735,17.1353565 50.78775,18.5845739 52.7113676,20.8635304 C53.4844853,21.7791826 54.0809559,22.7920522 54.5581324,23.8851826 C55.8485735,26.8378783 56.3418088,29.9194435 56.0940441,33.1129217 C55.7854853,37.0637913 54.2920147,40.4867478 51.4805735,43.3761391 C49.2208676,45.6991826 46.4358088,46.9177913 43.3135147,47.5406609 C41.6858382,47.8650957 40.0375147,47.9804 38.3777206,47.9736174 C36.9507794,47.9679652 35.5238382,47.972487 34.0968971,47.972487 L33.4763382,47.972487 Z" id="Fill-4" fill="#FFFFFF"></path>
                    <path d="M33.7652824,26.9119217 C33.6253412,28.1067913 33.6872824,36.1803565 33.8455765,36.6506174 C35.6636647,36.6506174 37.4920765,36.7082696 39.3147529,36.6359217 C41.2854,36.5556609 42.8018118,35.2420957 43.2032824,33.4017478 C43.4361353,32.3346174 43.4086059,31.2584435 43.1780471,30.1958348 C42.8304882,28.6007913 41.7361941,26.9334 39.3457235,26.8655739 C37.5207529,26.8135739 35.6934882,26.8463565 33.8673706,26.8429652 C33.8478706,26.8429652 33.8306647,26.8667043 33.7652824,26.9119217 M36.3071647,24.5877478 C37.4278412,24.6205304 38.5531059,24.6160087 39.6703412,24.6951391 C40.9940471,24.7878348 42.1732235,25.2897478 43.2193412,26.0946174 C44.0085176,26.7005304 44.5568118,27.4861826 44.8986353,28.3950522 C45.5834294,30.2252261 45.6969882,32.0881826 45.0913412,33.9624435 C44.1106059,37.0021826 41.5779,38.3892261 38.9201647,38.4367043 C36.9609882,38.4728783 35.0006647,38.4480087 33.0414882,38.4423565 C32.0974588,38.4389652 31.5916059,37.9528783 31.5858706,37.0202696 C31.5744,35.1640957 31.5824294,33.3079217 31.5824294,31.4517478 C31.5824294,29.7086174 31.6099588,27.9643565 31.5698118,26.2212261 C31.5491647,25.329313 32.0056941,24.5866174 33.2238706,24.6137478 C34.2504882,24.6352261 35.2782529,24.6182696 36.3060176,24.6182696 C36.3060176,24.6080957 36.3071647,24.5979217 36.3071647,24.5877478" id="Fill-6" fill="#FFFFFF"></path>
                </g>
            </g>
        </g>
    </g>
</svg>