<svg width="41px" height="42px" viewBox="0 0 41 42" version="1.1" xmlns="http://www.w3.org/2000/svg" xmlns:xlink="http://www.w3.org/1999/xlink">
        <defs>
            <polygon id="path-1" points="0.4911 0.0321 40.4941 0.0321 40.4941 42 0.4911 42"></polygon>
        </defs>
        <g id="Symbols" stroke="none" stroke-width="1" fill="none" fill-rule="evenodd">
            <g id="Event" transform="translate(-949.000000, -170.000000)">
                <g id="Group-8" transform="translate(949.000000, 169.000000)">
                    <g id="Group-3" transform="translate(0.000000, 0.968000)">
                        <mask id="mask-2" fill="white">
                            <use xlink:href="#path-1"></use>
                        </mask>
                        <g id="Clip-2"></g>
                        <path d="M21.7201,28.8081 C21.7201,25.3111 23.3151,21.8131 24.9101,18.8071 C25.6471,17.3961 26.5061,15.6781 26.5061,14.1441 C26.5061,12.3031 25.6471,10.2781 24.4191,8.0691 C23.2541,5.9221 21.5971,2.7321 20.4921,0.0321 C19.3871,2.7321 17.7321,5.9221 16.5661,8.0691 C15.3391,10.2781 14.4801,12.3031 14.4801,14.1441 C14.4801,15.6781 15.3391,17.3961 16.0741,18.8071 C17.6711,21.8131 19.2661,25.3111 19.2661,28.8081 L18.2831,28.8081 C18.2831,27.3351 17.7931,23.4701 16.0131,21.0771 C13.7431,18.0091 11.6571,16.1071 6.6261,16.1071 C3.1901,16.1071 0.4911,19.2981 0.4911,22.7341 C0.4911,26.1701 2.6991,29.8511 5.0921,31.2621 C5.0921,27.2131 6.7491,24.6971 11.2281,24.6971 C14.0511,24.6971 16.0741,26.7221 16.0741,28.8081 C14.7861,28.8081 13.4371,29.6061 13.4371,31.2011 C14.3571,30.6491 15.1551,30.2801 16.0741,30.2801 C16.0741,31.7531 15.5841,33.4711 14.4191,34.6981 C14.1731,33.4711 13.6821,32.4891 12.7001,32.4891 C11.5341,32.4891 10.4291,33.7781 10.4291,35.1891 C10.4291,36.6621 11.2901,37.8271 12.7621,37.8271 C15.2161,37.8271 17.7931,34.6981 18.0391,30.2801 L19.2661,30.2801 C19.2661,31.8141 19.1431,33.0421 18.7751,33.9621 C18.5301,34.6371 18.2831,35.2501 18.2831,35.8641 C18.2831,36.7231 19.5111,39.7911 20.4921,42.0001 C21.4751,39.7911 22.7011,36.7231 22.7011,35.8641 C22.7011,35.2501 22.4551,34.6371 22.2101,33.9621 C21.8431,33.0421 21.7201,31.8141 21.7201,30.2801 L22.9471,30.2801 C23.1921,34.6981 25.7691,37.8271 28.2241,37.8271 C29.6961,37.8271 30.5551,36.6621 30.5551,35.1891 C30.5551,33.7781 29.4501,32.4891 28.2841,32.4891 C27.3031,32.4891 26.8131,33.4711 26.5671,34.6981 C25.4011,33.4711 24.9101,31.7531 24.9101,30.2801 C25.8301,30.2801 26.6291,30.6491 27.5491,31.2011 C27.5491,29.6061 26.1991,28.8081 24.9101,28.8081 C24.9101,26.7221 26.9351,24.6971 29.7581,24.6971 C34.2371,24.6971 35.8931,27.2131 35.8931,31.2621 C38.2851,29.8511 40.4941,26.1701 40.4941,22.7341 C40.4941,19.2981 37.7941,16.1071 34.3591,16.1071 C29.3271,16.1071 27.2411,18.0091 24.9721,21.0771 C23.1921,23.4701 22.7011,27.3351 22.7011,28.8081 L21.7201,28.8081 Z" id="Fill-1" fill="#936E2A" mask=""></path>
                    </g>
                </g>
            </g>
        </g>
    </svg>