<svg width="50px" height="50px" viewBox="0 0 50 50" version="1.1" xmlns="http://www.w3.org/2000/svg" xmlns:xlink="http://www.w3.org/1999/xlink">
    <defs>
        <polygon id="path-1" points="0 0.143547111 49.6869048 0.143547111 49.6869048 49.3286982 0 49.3286982"></polygon>
    </defs>
    <g id="Page-1" stroke="none" stroke-width="1" fill="none" fill-rule="evenodd">
        <g id="Itinerary---Desktop" transform="translate(-990.000000, -2880.000000)">
            <g id="Group-16" transform="translate(990.000000, 2880.000000)">
                <g id="Group-3" transform="translate(0.000000, 0.012053)">
                    <mask id="mask-2" fill="white">
                        <use xlink:href="#path-1"></use>
                    </mask>
                    <g id="Clip-2"></g>
                    <path d="M23.9546429,46.1829381 C23.6058333,45.2133505 25.1879762,44.2188408 24.6486905,43.8248346 C24.099881,43.0866663 23.1879762,44.6579441 22.1439286,44.4490734 C21.3105952,44.3102218 20.4058333,43.8948538 20.1284524,42.9252661 C19.8510714,42.2310082 20.1975,41.5379369 20.4760714,40.9136982 C21.0641667,40.1992652 21.8665476,39.9429238 22.7022619,40.2882726 C22.9105952,40.4271242 23.1879762,40.5683493 23.3272619,40.7748466 C22.8415476,40.9825306 22.0046429,40.9136982 21.7272619,41.6067694 C21.7272619,41.953305 21.6570238,42.3010273 21.8665476,42.6475629 C22.2129762,43.2017825 22.9105952,43.4082798 23.5355952,43.2017825 C24.0236905,42.9252661 24.5105952,42.5775438 24.5796429,41.953305 C24.7189286,40.1506078 22.9105952,39.2498526 21.8665476,38.0001882 L8.99988095,25.3836814 C8.3725,24.9659398 7.47011905,25.035959 6.77607143,25.3836814 C6.00940476,25.730217 5.73202381,26.5621398 6.07845238,27.3228566 C6.42607143,27.878263 7.05345238,28.2960046 7.67845238,28.0871338 C8.02607143,27.9482822 8.30345238,27.670579 8.30345238,27.255211 C8.3725,26.9063018 8.23321429,26.4244749 8.3725,26.1443982 C9.07011905,26.2144174 9.4177381,26.9063018 9.62845238,27.462895 C9.69392857,28.0871338 9.41654762,28.6413534 8.93083333,29.0555346 C8.30345238,29.4732762 7.67845238,29.5421086 6.91297619,29.6121278 C6.07845238,29.3344246 4.96535714,28.7813918 4.8272619,27.8094306 C4.47964286,26.7698238 5.2427381,26.1443982 5.52369048,25.3136622 C5.5927381,25.035959 5.45345238,24.7582558 5.17369048,24.7582558 C4.6177381,25.243643 3.92369048,25.937901 3.08797619,25.5901786 C2.32130952,25.3136622 1.76654762,24.7582558 1.27964286,24.134017 C1.69630952,23.4397591 2.39392857,22.6790422 3.08797619,22.401339 C3.71535714,22.2624874 4.20107143,22.5390038 4.6177381,22.9567454 C4.75702381,23.0944102 4.75702381,23.3020942 4.96535714,23.4397591 C5.17369048,23.3697399 5.31535714,23.3020942 5.45345238,23.0944102 C5.52369048,22.4701714 5.03440476,22.0536166 4.6177381,21.5694162 C4.47964286,20.8751582 4.75702381,20.182087 5.17369048,19.6978866 C5.80107143,19.0712743 6.56416667,18.9347962 7.40107143,19.0048154 C8.16416667,19.1424802 8.79154762,19.6278674 9.13916667,20.3221254 C9.20821429,20.8751582 9.34630952,21.6370619 8.93083333,21.9847842 L7.95702381,22.401339 C8.16416667,22.0536166 8.23321429,21.4305646 7.95702381,21.0828422 C7.60940476,20.6674742 7.05345238,20.5298094 6.49511905,20.7374934 C6.2177381,20.9439906 5.80107143,21.1528614 5.80107143,21.6370619 C5.52369048,22.4701714 6.2177381,23.0944102 6.84511905,23.4397591 C7.53916667,23.6486298 8.3725,23.5797974 8.86059524,23.0944102 L23.1189286,8.88170343 C23.7463095,8.39631623 24.1629762,7.77089067 24.0236905,7.00780029 C24.0236905,6.38474826 23.5355952,5.82934188 23.049881,5.55282546 C22.424881,5.34514145 21.7272619,5.62047111 21.520119,6.24589667 C21.5189286,6.80011628 21.6570238,7.35552266 22.1439286,7.49437425 L22.9808333,7.63322585 C22.9808333,7.83972309 22.7022619,8.0474071 22.5641667,8.11861304 C21.449881,8.11861304 20.2296429,7.98213498 19.8129762,6.9413414 C19.6736905,6.2482702 19.8308333,5.50416807 20.3165476,5.0175941 C20.8046429,4.46456126 22.0046429,4.30316111 22.7713095,4.51321865 C23.3272619,4.65088348 23.7641667,5.29411053 24.1629762,5.4127871 C24.5617857,4.77074682 22.9808333,3.81896068 23.5355952,2.63931551 C23.8153571,2.01626349 24.3713095,1.60089547 24.9963095,1.25435987 C25.6236905,1.80739271 26.5260714,2.29396667 26.5272619,3.2635543 C26.5963095,4.16549628 25.6927381,4.7197159 25.8320238,5.4127871 C26.5272619,5.48280628 27.0141667,4.7197159 27.7784524,4.58205107 C28.2641667,4.51321865 28.8927381,4.44319947 29.3784524,4.7197159 C29.9344048,5.20510309 30.4225,5.7593227 30.2141667,6.66126468 C30.0760714,7.28550348 29.5867857,7.97976145 28.8225,8.0474071 C28.3344048,8.18744546 27.7094048,8.11861304 27.3617857,7.63322585 C27.570119,7.49437425 28.0558333,7.49437425 28.3344048,7.28550348 C28.6844048,6.94015464 28.6844048,6.45239391 28.545119,6.03821266 C28.1260714,5.62047111 27.570119,5.34514145 27.0141667,5.48280628 C26.4570238,5.7593227 25.399881,6.70280149 26.4617857,8.0402865 L40.5546429,22.3087713 C40.970119,22.8796056 42.2308333,23.6996608 43.220119,22.8867262 C43.5665476,22.7466878 43.9141667,22.401339 43.9867857,21.9847842 C43.9867857,21.499397 43.8475,20.8751582 43.2891667,20.7374934 C43.0105952,20.597455 42.5927381,20.597455 42.3832143,20.8751582 C42.0355952,21.1528614 42.0367857,21.5694162 42.1082143,21.9159518 L42.3165476,22.1924682 C41.9665476,22.4701714 41.4808333,21.8459326 41.3427381,21.5694162 C41.0653571,21.0828422 41.0855952,20.5191285 41.4808333,19.9043838 C41.8975,19.4189966 42.524881,19.280145 43.0808333,19.280145 C43.6355952,19.280145 44.2641667,19.4890158 44.6796429,19.9043838 C45.3058333,20.6674742 45.7391667,21.3415572 44.820119,22.609023 C44.6117857,22.816707 44.4022619,23.024391 44.4725,23.4397591 C45.3058333,23.9251462 45.374881,22.4701714 46.2105952,22.609023 C47.1855952,22.6790422 47.7403571,23.5797974 48.5772619,24.0639978 C47.949881,24.5505718 47.4629762,25.659011 46.5582143,25.659011 C45.8629762,25.659011 45.3058333,25.1047914 44.749881,24.7582558 C43.9867857,25.3836814 45.0713095,26.013854 45.2355952,26.5621398 C45.4439286,27.3228566 45.3320238,27.8533409 44.6117857,28.5713342 C43.9177381,29.1231803 41.8772619,29.1326744 41.549881,27.0463402 C41.5284524,26.2796895 41.6891667,26.0067334 42.1082143,25.7990494 L42.3832143,25.7990494 C42.3165476,26.1443982 42.245119,26.8374694 42.5927381,27.1851918 C42.9415476,27.462895 43.3582143,27.462895 43.774881,27.255211 C44.3332143,26.9063018 44.4415476,26.4577044 44.0546429,25.730217 C42.7082143,23.7044078 40.8034524,25.8844965 40.8034524,25.8844965 C39.8367857,26.7935591 31.0153571,35.6432714 27.8177381,38.8297375 C26.6510714,39.9939547 26.0760714,40.7024538 25.9296429,41.2875294 C25.7903571,42.049433 26.4570238,42.9252661 27.0141667,43.270615 C27.5010714,43.4082798 28.3344048,43.4806725 28.6844048,42.9929118 C29.0320238,42.5775438 28.8927381,41.8832858 28.6844048,41.3990854 C28.4034524,40.9136982 27.7784524,41.051363 27.2927381,40.9825306 C27.2225,40.5683493 27.7094048,40.2206269 28.0558333,40.0805886 C28.6844048,39.9429238 29.2391667,40.1506078 29.6558333,40.4983301 C30.2141667,41.051363 30.5617857,41.8144534 30.4225,42.5775438 C30.1439286,43.1329501 29.9332143,43.8248346 29.2391667,44.1025378 C28.4725,44.3802409 27.9153571,44.2769923 26.9427381,43.7560022 C26.2665476,43.4201474 26.0463095,43.8699317 26.1141667,44.2188408 C26.1855952,44.7030412 27.0141667,44.795609 27.1534524,45.2809962 C27.4534524,46.4772561 26.7379762,46.5947459 25.6927381,47.9868221 C25.6927381,47.9868221 24.2320238,46.9460285 23.9546429,46.1829381 M21.6570238,39.1810201 C20.8939286,39.4575366 20.5296429,39.6794618 19.7808333,40.4983301 C19.1617857,41.6815356 19.2260714,42.3010273 19.4344048,43.2017825 C19.7117857,44.1025378 20.1629762,44.8181575 20.9284524,45.3035447 C21.6558333,45.6797495 22.7117857,45.4507037 22.7117857,45.4507037 C22.7117857,46.1366543 22.7117857,47.1655802 23.8189286,47.9868221 C23.8189286,47.9868221 24.7855952,48.8045037 25.4784524,49.3290542 C25.4784524,49.3290542 28.5379762,48.1945061 28.2427381,45.3035447 C28.2427381,45.3035447 31.9177381,45.3035447 31.4784524,41.5972752 C31.1844048,39.1133745 29.0927381,39.2178099 29.0927381,39.2178099 C29.0927381,39.2178099 40.3189286,27.8901307 40.9427381,27.4047435 C40.9427381,27.4047435 40.9653571,27.9981263 41.4808333,28.7813918 C42.174881,29.5421086 43.149881,29.7486058 44.0546429,29.6809602 C44.820119,29.6121278 46.7225,28.7434152 46.1820238,26.581128 C46.945119,26.0981144 47.4379762,26.3414013 47.999881,25.7551391 C48.9344048,24.9588192 49.6879762,24.0639978 49.6879762,24.0639978 C49.6879762,24.0639978 47.3117857,21.590778 46.0832143,21.590778 C46.0832143,21.590778 46.0808333,20.070531 45.3141667,19.371526 C44.5463095,18.672521 43.4784524,17.8144893 41.9665476,18.5870738 C40.9939286,19.0048154 40.574881,19.974403 40.2986905,20.8051391 C40.1594048,20.6674742 28.4653571,9.07870655 28.4653571,9.07870655 C28.4653571,9.07870655 31.1165476,8.57670463 31.1165476,6.52241309 C31.1165476,5.34514145 29.7986905,3.03806881 27.2605952,3.69078998 C28.1260714,1.86198394 25.6236905,0.906637497 25.0653571,0.143547111 C24.2320238,0.767785903 21.7391667,2.38416087 22.7153571,3.56024574 C18.7903571,3.16861304 18.2725,6.58293814 18.9784524,7.63441261 C19.8475,8.70843563 21.7082143,9.10718892 21.5689286,9.10718892 L10.220119,20.405199 C9.69511905,18.5657121 8.36892857,18.165772 8.36892857,18.165772 C5.84392857,17.26383 5.2177381,17.8489055 4.20940476,18.9668389 C3.4177381,19.8462323 3.81535714,21.443619 3.81535714,21.443619 C3.02964286,21.2964601 1.89988095,22.325386 1.89988095,22.325386 L-0.000119047619,24.1055346 L1.41892857,25.5213462 C1.41892857,25.5213462 2.63678571,27.3228566 3.91535714,26.2939307 C3.12845238,28.5119959 5.45345238,30.3752182 6.70345238,30.305199 C7.88678571,30.4440506 9.20821429,30.0286826 10.0439286,29.0555346 C10.2534524,28.7813918 10.2534524,28.3636502 10.4617857,28.2236118 C10.5522619,28.3031251 10.8236905,28.5654004 10.8236905,28.5689607" id="Fill-1" fill="#FFFFFF" mask="url(#mask-2)"></path>
                </g>
                <path d="M13.5641667,22.1977571 L16.1844048,22.0731467 L16.2760714,19.493118 L17.5605952,18.2137845 L17.4927381,23.7096967 L14.4367857,23.8058247 L13.9582143,24.2532354 L14.320119,24.8335639 C15.3522619,24.8335639 17.5629762,24.8561124 17.5629762,24.8561124 L17.5296429,30.3009938 C17.5296429,30.3009938 16.5986905,29.3717562 16.1213095,28.8982366 L16.1820238,26.5626816 L13.8689286,26.651689 L11.4820238,24.2734105 L13.5641667,22.1977571 Z M20.5296429,15.2539906 L22.8713095,15.3145157 L22.7820238,13.0086298 L25.1689286,10.6291645 L27.2510714,12.703631 L27.3760714,15.3157025 L29.9629762,15.4082702 L31.2475,16.6887905 L25.7344048,16.6211448 L25.6379762,13.5747171 L25.1879762,13.0976373 L24.6070238,13.4572273 C24.6070238,14.48734 24.5832143,16.691164 24.5832143,16.691164 L19.1213095,16.6579345 C19.1213095,16.6579345 20.0534524,15.7298837 20.5296429,15.2539906 L20.5296429,15.2539906 Z M31.9177381,30.9299796 C27.7879762,31.0890062 20.0796429,30.6166735 18.5153571,30.6202338 C18.6665476,29.1605119 18.4355952,22.223866 18.5153571,17.8696224 L31.6236905,17.8257121 C31.5760714,21.2329166 31.7284524,28.1149712 31.9177381,30.9299796 L31.9177381,30.9299796 Z M34.1915476,19.5928063 L34.1308333,21.9271745 L36.4439286,21.8381671 L38.8308333,24.2176325 L36.7486905,26.292099 L34.1284524,26.4178962 L34.0367857,28.9967382 L32.7522619,30.2760717 L32.820119,24.7813462 L35.8760714,24.6840314 L36.3558333,24.2366207 L35.9927381,23.6562923 C34.9605952,23.6562923 32.749881,23.6337437 32.749881,23.6337437 L32.7832143,18.1888624 C32.7832143,18.1888624 33.7141667,19.1181 34.1915476,19.5928063 L34.1915476,19.5928063 Z M29.7832143,33.2358655 L27.4415476,33.1753404 L27.5308333,35.4812263 L25.1439286,37.8606917 L23.0629762,35.7862251 L22.9367857,33.1741537 L20.349881,33.081586 L19.0665476,31.8022525 L24.5784524,31.8687113 L24.674881,34.9151391 L25.124881,35.3934057 L25.7058333,35.0326289 C25.7058333,34.0025162 25.7296429,31.7986922 25.7296429,31.7986922 L31.1915476,31.8331084 C31.1915476,31.8331084 30.2594048,32.7611592 29.7832143,33.2358655 L29.7832143,33.2358655 Z M10.0403571,24.4229429 L25.0034524,39.2610753 L40.020119,24.2912119 L25.1355952,9.45426636 L10.0403571,24.4229429 Z" id="Fill-4" fill="#FFFFFF"></path>
                <path d="M23.9715476,20.8499473 C24.6667857,21.5442052 24.6667857,22.6692592 23.9715476,23.3623304 C23.2763095,24.0565883 22.1465476,24.0565883 21.4513095,23.3623304 C20.754881,22.6692592 20.754881,21.5442052 21.4513095,20.8499473 C22.1465476,20.156876 23.2763095,20.156876 23.9715476,20.8499473 M28.5203571,20.663625 C29.2167857,21.357883 29.2167857,22.4817502 28.5203571,23.1760082 C27.8239286,23.8702661 26.6965476,23.8702661 26.000119,23.1760082 C25.3036905,22.4817502 25.3036905,21.357883 26.000119,20.663625 C26.6965476,19.9693671 27.8239286,19.9693671 28.5203571,20.663625 M28.7084524,25.3371086 C29.4036905,26.0313666 29.4036905,27.1552338 28.7084524,27.8494917 C28.0120238,28.5437497 26.8834524,28.5437497 26.1870238,27.8494917 C25.4917857,27.1552338 25.4905952,26.0313666 26.1870238,25.3371086 C26.8834524,24.6428506 28.0120238,24.6428506 28.7084524,25.3371086 M21.3013095,28.0037713 C20.604881,27.3107001 20.604881,26.1856461 21.3013095,25.4913882 C21.9977381,24.798317 23.1263095,24.798317 23.8215476,25.4913882 C24.5179762,26.1856461 24.5179762,27.3107001 23.8215476,28.0037713 C23.1263095,28.6980292 21.9977381,28.6980292 21.3013095,28.0037713 M19.6810714,29.6189595 L30.5477381,29.8574994 L30.2822619,19.1208295 C27.0310714,19.1208295 19.6346429,18.9796044 19.6346429,18.9796044 C19.5322619,22.0022968 19.6810714,29.6189595 19.6810714,29.6189595" id="Fill-6" fill="#FFFFFF"></path>
                <polygon id="Fill-8" fill="#FFFFFF" points="9.24809524 19.1990374 8.25880952 18.2140218 19.2266667 7.28034884 20.2147619 8.26655119"></polygon>
                <polygon id="Fill-10" fill="#FFFFFF" points="30.930119 41.8999676 29.9420238 40.914952 42.3705952 28.5239307 43.3586905 29.5101331"></polygon>
                <polygon id="Fill-12" fill="#FFFFFF" points="20.7511905 40.4020319 19.6880952 41.4618137 8.2952381 30.1032786 9.35833333 29.0446835"></polygon>
                <polygon id="Fill-14" fill="#FFFFFF" points="42.2117857 18.9510034 41.2236905 19.9360189 29.3677381 8.11820547 30.3570238 7.13318988"></polygon>
            </g>
        </g>
    </g>
</svg>