<svg xmlns="http://www.w3.org/2000/svg" viewBox="0 0 12.64 19.86"><defs><style>.cls-1{fill:#946d0f;}</style></defs><title>Hourglass</title><g id="Layer_2" data-name="Layer 2"><g id="Layer_1-2" data-name="Layer 1"><path class="cls-1" d="M11.58,2.12H1.06A1.06,1.06,0,0,1,1.06,0H11.58a1.06,1.06,0,1,1,0,2.12Z"/><path class="cls-1" d="M11.58,19.86H1.06a1.06,1.06,0,1,1,0-2.11H11.58a1.06,1.06,0,1,1,0,2.11Z"/><path class="cls-1" d="M10.73,18.71H1.91a1.06,1.06,0,0,1,0-2.12h8.82a1.06,1.06,0,0,1,0,2.12Z"/><path class="cls-1" d="M10.73,3.19H1.91a1.06,1.06,0,0,1,0-2.12h8.82a1.06,1.06,0,0,1,0,2.12Z"/><path class="cls-1" d="M2.18,17.65H1.65c0-3.55,1.12-6.35,3.1-7.76C3.45,9,1.65,6.84,1.65,2.13h.53c0,3.57,1.16,6.31,3.18,7.54a.25.25,0,0,1,.13.22.26.26,0,0,1-.13.23C3.34,11.34,2.18,14.08,2.18,17.65Z"/><path class="cls-1" d="M11,17.65h-.53c0-3.56-1.16-6.31-3.18-7.53a.28.28,0,0,1-.13-.23.25.25,0,0,1,.13-.22c2-1.22,3.18-4,3.18-7.54H11C11,5.69,9.87,8.49,7.9,9.89,9.19,10.82,11,13,11,17.65Z"/><path class="cls-1" d="M3.33,15.53c0-1.63,3-3.26,3-3.26s3,1.63,3,3.26Z"/></g></g></svg>