<svg id="MainLogo" width="247px" height="42px" viewBox="0 0 247 42" version="1.1" xmlns="http://www.w3.org/2000/svg" xmlns:xlink="http://www.w3.org/1999/xlink">
        <g id="Symbols" stroke="none" stroke-width="1" fill="none" fill-rule="evenodd">
            <g id="Nav/Main-Desktop" transform="translate(-87.000000, -55.000000)" fill="#303030">
                <g id="Group" transform="translate(87.000000, 55.000000)">
                    <path d="M236.839892,27.1647 C234.743892,30.5437 232.768892,29.7077 230.304892,29.7607 C224.280892,29.8787 224.051892,29.8467 224.051892,21.2597 L224.051892,18.3217 C224.051892,16.6397 224.464892,16.4107 228.901892,16.4107 L229.419892,16.4107 C231.471892,16.4107 231.567892,16.7357 231.794892,19.9107 C231.846892,20.2347 233.008892,19.9977 233.008892,19.8137 C233.008892,17.3837 233.242892,14.2607 233.575892,11.8337 C233.616892,11.6017 232.447892,11.4107 232.410892,11.6447 C231.748892,14.4467 231.513892,14.5397 229.369892,14.5397 L228.901892,14.5397 C224.464892,14.5397 224.051892,14.4467 224.051892,11.9737 L224.051892,9.0297 C224.051892,2.7757 224.090892,2.7757 229.788892,2.7757 C234.457892,2.7757 235.246892,3.0117 234.924892,6.6927 C234.876892,6.9807 236.095892,6.8847 236.132892,6.5987 C236.373892,4.4647 236.610892,2.8227 236.880892,1.5157 C237.026892,0.8587 236.738892,0.7267 236.095892,0.7267 C234.505892,0.7267 231.196892,1.0017 221.995892,1.0017 C220.128892,1.0017 216.723892,0.7267 215.787892,0.7267 C215.551892,0.7267 215.467892,1.8417 215.693892,1.8897 C219.848892,2.4537 219.943892,2.7757 219.943892,14.9107 L219.943892,17.8077 C219.943892,29.9417 219.848892,30.2717 215.693892,30.8397 C215.467892,30.8807 215.551892,31.9967 215.787892,31.9967 C216.723892,31.9967 220.128892,31.7197 221.995892,31.7197 C231.196892,31.7197 233.228892,31.8547 234.817892,31.8547 C235.472892,31.8547 235.896892,31.1967 236.284892,30.6807 C237.088892,29.5757 237.555892,28.8517 238.421892,27.8077 C238.607892,27.5807 237.000892,26.9107 236.839892,27.1647 L236.839892,27.1647 Z M229.784892,36.0417 L229.580892,36.3007 C229.580892,36.3007 227.411892,38.6467 224.271892,39.2837 C222.868892,39.5667 221.075892,39.1787 221.075892,39.1787 C216.377892,37.9097 210.961892,32.4197 203.068892,21.9147 L201.054892,19.2587 C200.306892,18.2787 200.916892,17.7627 201.800892,17.3027 C205.028892,15.5727 207.591892,12.0297 207.591892,8.4257 C207.591892,2.0337 202.412892,0.6357 196.989892,0.7217 C194.751892,0.7717 192.038892,1.0097 190.183892,1.0097 C188.315892,1.0097 184.908892,0.7217 183.971892,0.7217 C183.738892,0.7217 183.644892,1.8507 183.882892,1.8967 C188.033892,2.4537 188.121892,2.7777 188.121892,14.9107 L188.121892,17.8097 C188.121892,29.9477 188.033892,30.2717 183.882892,30.8287 C183.644892,30.8807 183.738892,32.0047 183.971892,32.0047 C184.908892,32.0047 188.315892,31.7257 190.183892,31.7257 C192.038892,31.7257 195.452892,32.0047 196.389892,32.0047 C196.628892,32.0047 196.712892,30.8807 196.477892,30.8287 C192.326892,30.2717 192.234892,29.9477 192.234892,17.8097 L192.234892,8.2947 C192.234892,2.7367 192.657892,2.7367 195.830892,2.7367 C201.752892,2.7367 202.735892,5.9557 202.735892,9.1717 C202.735892,13.9447 201.069892,16.6807 196.507892,16.9617 C196.252892,16.9717 196.020892,17.0217 195.740892,17.0217 C195.437892,17.0217 194.699892,17.0077 194.366892,16.9847 L194.360892,18.3137 C194.970892,18.4697 195.322892,18.6617 195.748892,19.0087 C196.389892,19.5097 197.006892,20.3417 198.167892,21.8197 L199.603892,23.6917 C209.646892,36.6607 215.476892,41.7587 221.590892,41.7587 C224.132892,41.7587 227.453892,41.2527 229.947892,38.4027 L230.364892,37.9017 L231.293892,36.6767 C231.437892,36.4437 229.930892,35.7747 229.784892,36.0417 L229.784892,36.0417 Z M16.3188917,14.6437 C19.8958917,13.0707 22.1238917,10.6107 22.1288917,7.5947 C22.1328917,2.8097 18.5568917,0.8527 13.7288917,0.8527 C10.4808917,0.8467 8.38889175,1.3047 6.66589175,1.3047 C4.81389175,1.3047 1.20089175,1.0197 0.264891747,1.0237 C0.0278917473,1.0197 -0.0631082527,2.1347 0.171891747,2.1817 C4.30189175,2.7397 4.39689175,3.0637 4.38389175,15.1437 L4.37889175,18.0237 C4.36789175,30.0927 4.26989175,30.4187 0.133891747,30.9667 C-0.0981082527,31.0197 -0.0041082527,32.1367 0.228891747,32.1367 C1.16089175,32.1317 4.87489175,31.8627 6.73089175,31.8627 C9.09589175,31.8657 11.6978917,32.0057 14.1108917,32.0117 C20.3808917,32.0147 24.4768917,27.8457 24.4808917,23.1997 C24.4828917,19.3007 22.0738917,15.5317 16.3188917,14.6437 L16.3188917,14.6437 Z M8.52389175,6.0447 C8.52689175,3.7657 9.12989175,2.6557 11.5908917,2.6597 C14.0508917,2.6617 17.4438917,3.2237 17.4348917,8.7917 C17.4318917,11.5807 15.1568917,14.2237 11.7178917,14.2237 C9.06789175,14.2177 8.51589175,14.2197 8.51789175,10.6887 L8.52389175,6.0447 Z M13.1388917,30.2897 C10.9588917,30.2917 8.49889175,30.0987 8.49889175,26.0167 L8.50589175,19.8367 C8.51089175,16.0737 9.06789175,16.0267 11.9018917,16.0347 C15.2918917,16.0367 19.5628917,18.0827 19.5598917,23.5657 C19.5558917,26.6317 18.3418917,30.3007 13.1388917,30.2897 L13.1388917,30.2897 Z M37.4548917,15.1787 C37.4708917,3.1047 37.5568917,2.7777 41.6958917,2.2277 C41.9218917,2.1837 41.8318917,1.0667 41.6028917,1.0667 C40.6728917,1.0667 37.2878917,1.3387 35.4248917,1.3387 C33.5728917,1.3387 30.1338917,1.0547 29.1998917,1.0507 C28.9688917,1.0507 28.8798917,2.1727 29.1088917,2.2157 C33.2398917,2.7777 33.3338917,3.1027 33.3138917,15.1697 L33.3138917,18.0567 C33.2988917,30.1267 33.2098917,30.4507 29.0718917,31.0037 C28.8398917,31.0537 28.9368917,32.1707 29.1688917,32.1707 C30.0978917,32.1667 33.5358917,31.8967 35.3898917,31.8967 C37.2508917,31.8947 40.6418917,32.1797 41.5688917,32.1797 C41.8008917,32.1797 41.8888917,31.0677 41.6618917,31.0227 C37.5318917,30.4577 37.4348917,30.1307 37.4488917,18.0587 L37.4548917,15.1787 Z M100.821892,1.2207 C99.4688917,1.2167 96.1778917,1.4967 87.0208917,1.4837 C77.8798917,1.4767 74.8168917,1.1937 73.7518917,1.1897 C73.0968917,1.1937 72.7778917,1.3247 72.8188917,1.9807 C72.8678917,3.2767 72.8638917,4.9057 72.7228917,7.0387 C72.7188917,7.3197 73.9218917,7.4147 73.9268917,7.1347 C74.2078917,3.4697 74.9078917,3.3307 79.1768917,3.3357 L80.6658917,3.3357 C84.9418917,3.3397 84.9338917,3.8067 84.9228917,13.3717 L84.9198917,18.1117 C84.9088917,30.1807 84.8128917,30.5087 80.6748917,31.0597 C80.4478917,31.1107 80.5358917,32.2227 80.7698917,32.2227 C81.7018917,32.2227 85.0918917,31.9487 86.9528917,31.9507 C88.8028917,31.9507 92.1958917,32.2307 93.1228917,32.2327 C93.3598917,32.2327 93.4488917,31.1197 93.2218917,31.0677 C89.0878917,30.5087 88.9908917,30.1847 89.0018917,18.1137 L89.0088917,13.3717 C89.0198917,3.8587 89.0218917,3.3467 93.1998917,3.3507 L95.3368917,3.3507 C99.6108917,3.3587 99.9338917,3.4957 100.117892,7.1657 C100.112892,7.4407 101.276892,7.3527 101.329892,7.0707 C101.370892,4.9357 101.513892,3.6817 101.653892,2.3817 C101.748892,1.7327 101.468892,1.2267 100.821892,1.2207 L100.821892,1.2207 Z M147.091892,31.6997 C142.676892,31.0417 142.543892,30.7627 141.397892,18.7327 L141.117892,15.8127 C140.795892,12.1867 140.559892,9.6347 140.565892,7.7737 C140.573892,3.5017 141.779892,3.2267 145.539892,2.9047 C145.772892,2.9047 145.683892,1.7437 145.448892,1.7417 C144.523892,1.7377 141.137892,2.0207 139.275892,2.0157 C138.815892,2.0117 137.190892,1.8737 136.676892,1.8727 C136.162892,1.8647 136.023892,2.5717 135.835892,3.0297 C134.206892,7.0237 132.214892,11.8017 130.156892,16.4927 L128.850892,19.4627 C127.276892,23.0867 126.155892,25.3097 125.083892,27.3567 C124.988892,27.5397 124.847892,27.5877 124.711892,27.2637 C123.505892,24.7007 122.531892,22.1957 120.867892,18.0177 L119.708892,15.1307 C118.226892,11.4637 116.513892,6.8617 115.123892,2.6807 C115.033892,2.3547 114.754892,1.8027 114.380892,1.8027 C113.736892,1.8027 112.202892,1.9847 111.590892,1.9807 C109.740892,1.9807 106.626892,1.6987 105.706892,1.6987 C105.466892,1.6927 105.375892,2.8617 105.604892,2.8637 C109.135892,3.1867 110.434892,3.4697 110.427892,7.5557 C110.427892,9.4147 110.144892,12.0597 109.720892,15.8237 L109.394892,18.6957 C108.034892,30.7727 107.848892,31.0987 102.646892,31.6477 C102.415892,31.6937 102.505892,32.8107 102.737892,32.8057 C103.668892,32.8057 106.775892,32.5297 108.637892,32.5317 C110.499892,32.5387 113.328892,32.8267 114.253892,32.8237 C114.487892,32.8217 114.584892,31.7067 114.355892,31.6607 C111.977892,31.2847 111.051892,31.0537 111.059892,27.8027 C111.059892,25.9467 111.338892,23.1137 111.855892,18.7027 L112.136892,16.2437 C112.374892,14.2437 112.744892,11.9727 113.027892,10.3007 C113.172892,9.4617 113.304892,10.2967 113.534892,10.8567 L115.712892,16.2917 L116.871892,19.1247 C119.833892,26.3237 120.530892,27.9977 122.335892,32.9707 C122.519892,33.4327 122.843892,33.5307 123.126892,33.3427 C123.773892,32.8327 124.423892,32.5517 125.027892,32.1797 C125.259892,32.0397 125.679892,31.7687 125.774892,31.5837 C127.637892,27.1317 129.075892,24.3397 131.733892,18.4917 L133.218892,15.1967 C134.202892,13.0657 134.993892,11.2977 135.973892,9.1627 C136.110892,8.8837 136.294892,8.5127 136.339892,8.9747 C136.524892,11.0687 136.661892,12.9227 136.935892,15.8487 L137.211892,18.7327 C137.626892,23.0477 137.901892,25.8317 137.895892,27.6927 C137.891892,30.9907 137.010892,31.2697 134.555892,31.6837 C134.314892,31.7257 134.404892,32.8457 134.645892,32.8437 C135.567892,32.8457 138.402892,32.5657 140.264892,32.5727 C142.119892,32.5727 146.068892,32.8587 146.994892,32.8587 C147.225892,32.8587 147.321892,31.7427 147.091892,31.6997 L147.091892,31.6997 Z M164.776892,0.5247 C155.124892,0.5117 148.471892,7.2427 148.454892,16.5297 C148.445892,26.6527 154.247892,32.5557 164.742892,32.5727 C174.402892,32.5837 181.047892,25.8547 181.063892,16.5697 C181.068892,6.4447 175.273892,0.5427 164.776892,0.5247 L164.776892,0.5247 Z M164.748892,30.6187 C157.685892,30.6157 153.418892,24.8957 153.433892,16.5337 C153.439892,7.7597 156.371892,2.4737 164.776892,2.4817 C171.834892,2.4877 176.056892,8.1587 176.043892,16.5157 C176.032892,25.2897 173.153892,30.6257 164.748892,30.6187 L164.748892,30.6187 Z M74.0478917,23.7577 C71.9588917,29.4617 72.6868917,30.0697 64.6908917,30.0597 C58.5838917,30.0507 58.2468917,29.5157 58.2548917,23.8747 L58.2608917,14.7447 C58.2738917,3.9927 58.4098917,2.8577 64.3848917,2.0587 C64.7228917,1.9867 64.5928917,1.0487 64.2548917,1.0527 C62.9128917,1.0487 58.9518917,1.4497 56.2638917,1.4427 C53.5778917,1.4407 49.4798917,1.0387 48.1398917,1.0347 C47.8018917,1.0327 47.6658917,1.9667 48.0008917,2.0367 C53.9788917,2.8477 54.1098917,3.9907 54.0988917,14.7337 L54.0898917,18.9007 C54.0828917,29.6407 53.9498917,30.7837 47.9658917,31.5797 C47.6318917,31.6547 47.7658917,32.5897 48.1008917,32.5897 C49.4428917,32.5927 53.5408917,32.1967 56.2268917,32.1967 C66.0998917,32.2067 68.7998917,32.4117 71.0818917,32.4157 C72.0228917,32.4197 73.5688917,32.1507 73.7008917,31.2117 C74.0468917,28.5227 74.5188917,26.5157 75.1278917,24.2297 C75.2578917,23.8317 74.1788917,23.3527 74.0478917,23.7577 L74.0478917,23.7577 Z" id="Fill-1"></path>
                    <path d="M242.042992,3.695 L242.536992,3.695 C243.099992,3.695 243.574992,3.491 243.574992,2.963 C243.574992,2.588 243.302992,2.214 242.536992,2.214 C242.314992,2.214 242.160992,2.23 242.042992,2.247 L242.042992,3.695 Z M242.042992,6.063 L241.360992,6.063 L241.360992,1.787 C241.719992,1.737 242.059992,1.685 242.570992,1.685 C243.216992,1.685 243.643992,1.821 243.898992,2.009 C244.154992,2.195 244.290992,2.486 244.290992,2.895 C244.290992,3.457 243.916992,3.797 243.456992,3.933 L243.456992,3.967 C243.830992,4.035 244.086992,4.377 244.170992,5.007 C244.272992,5.671 244.374992,5.925 244.442992,6.063 L243.729992,6.063 C243.626992,5.925 243.524992,5.535 243.438992,4.973 C243.336992,4.427 243.064992,4.223 242.519992,4.223 L242.042992,4.223 L242.042992,6.063 Z M242.758992,0.595 C241.070992,0.595 239.692992,2.043 239.692992,3.831 C239.692992,5.653 241.070992,7.083 242.774992,7.083 C244.478992,7.101 245.840992,5.653 245.840992,3.847 C245.840992,2.043 244.478992,0.595 242.774992,0.595 L242.758992,0.595 Z M242.774992,1.45661261e-13 C244.868992,1.45661261e-13 246.538992,1.701 246.538992,3.831 C246.538992,5.995 244.868992,7.68 242.758992,7.68 C240.663992,7.68 238.959992,5.995 238.959992,3.831 C238.959992,1.701 240.663992,1.45661261e-13 242.758992,1.45661261e-13 L242.774992,1.45661261e-13 Z" id="Fill-3"></path>
                </g>
            </g>
        </g>
    </svg>