<svg width="13px" height="13px" viewBox="0 0 33 33" version="1.1" xmlns="http://www.w3.org/2000/svg" xmlns:xlink="http://www.w3.org/1999/xlink">
        <defs>
            <polygon id="path-1" points="7.5e-05 0.0003 32.86575 0.0003 32.86575 32.865975 7.5e-05 32.865975"></polygon>
        </defs>
        <g id="Pages" stroke="none" stroke-width="1" fill="none" fill-rule="evenodd">
            <g id="Main-Desktop-Dropdown" transform="translate(-1125.000000, -27.000000)">
                <g id="Nav/Main-Desktop">
                    <g id="Group-3" transform="translate(1125.000000, 27.000000)">
                        <mask id="mask-2" fill="white">
                            <use xlink:href="#path-1"></use>
                        </mask>
                        <g id="Clip-2"></g>
                        <path d="M5.496825,21.1743 C3.402825,19.0803 2.250075,16.2963 2.250075,13.3353 C2.250075,10.3743 3.402825,7.59105 5.496825,5.49705 C7.590825,3.40305 10.374075,2.2503 13.335075,2.2503 C16.296075,2.2503 19.079325,3.40305 21.173325,5.49705 C23.267325,7.59105 24.420075,10.3743 24.420075,13.3353 C24.420075,16.2963 23.267325,19.0803 21.173325,21.1743 C16.851075,25.4958 9.819825,25.4958 5.496825,21.1743 Z M32.865825,31.2753 L23.520825,21.93105 C25.555575,19.5288 26.670075,16.5198 26.670075,13.3353 C26.670075,9.77355 25.283325,6.42405 22.764075,3.9063 C20.246325,1.38705 16.896825,0.0003 13.335075,0.0003 C9.773325,0.0003 6.423825,1.38705 3.906075,3.9063 C1.387575,6.42405 7.5e-05,9.77355 7.5e-05,13.3353 C7.5e-05,16.8978 1.387575,20.24655 3.906075,22.76505 C6.505575,25.3653 9.920325,26.6643 13.335075,26.6643 C16.397325,26.6643 19.454325,25.61055 21.928575,23.5203 L31.275075,32.86605 L32.865825,31.2753 Z" id="Fill-1" fill="#fff" mask=""></path>
                    </g>
                </g>
            </g>
        </g>
    </svg>